<?xml version="1.0" encoding="utf-8"?>
<!-- Generator: Adobe Illustrator 24.0.2, SVG Export Plug-In . SVG Version: 6.00 Build 0)  -->
<svg version="1.1" id="Camada_1" xmlns="http://www.w3.org/2000/svg" xmlns:xlink="http://www.w3.org/1999/xlink" x="0px" y="0px"
	 viewBox="0 0 1280 1280" style="enable-background:new 0 0 1280 1280;" xml:space="preserve">
<style type="text/css">
	.st0{fill:#1F122F;}
	.st1{fill:#B948C4;}
	.st2{fill:#FFFFFF;}
	.st3{font-family:'Corbel-Bold';}
	.st4{font-size:97.2452px;}
	.st5{letter-spacing:7;}
</style>
<rect x="0.12" y="0.46" class="st0" width="1279.88" height="1279.54"/>
<g>
	<g>
		<g>
			<path class="st1" d="M602.46,712.19c6.3,16,21.89,27.38,40.11,27.38s33.8-11.37,40.11-27.38H602.46z"/>
		</g>
	</g>
	<g>
		<path class="st1" d="M878.05,493.52v139.02c0,5.51-3.67,10.34-8.98,11.82l-200.09,55.57h238.47V493.52H878.05z"/>
		<path class="st1" d="M416.07,644.35c-5.31-1.47-8.98-6.31-8.98-11.82V493.52h-29.4v206.41h238.47L416.07,644.35z"/>
	</g>
	<path class="st1" d="M553.58,625.49c-2.39-2.31-3.74-5.49-3.74-8.81V419.3l-57.89-28.75v229.17l114.37,56.81L553.58,625.49z"/>
	<path class="st1" d="M735.29,419.3v197.38c0,3.32-1.35,6.5-3.74,8.81l-52.74,51.03l64.16-31.87l50.2-24.94V390.55L735.29,419.3z"/>
	<path class="st1" d="M805.45,459.39v160.33c0,4.66-2.64,8.91-6.81,10.98l-93.53,46.46l160.68-44.62V442.63L805.45,459.39z"/>
	<path class="st1" d="M486.5,630.7c-4.17-2.07-6.81-6.33-6.81-10.98V459.39l-60.33-16.76v189.91l111.6,31l49.07,13.63L486.5,630.7z"
		/>
	<g>
		<polygon class="st1" points="636.43,450.11 562.11,378.2 562.11,616.68 602.34,655.6 636.43,688.59 		"/>
		<polygon class="st1" points="648.7,450.11 648.7,688.59 723.02,616.68 723.02,378.2 		"/>
	</g>
</g>
<g>
	<g>
		<g>
			<g>
				<text transform="matrix(1.0003 0 0 1 379.269 873.4688)" class="st2 st3 st4 st5">bIBLIOTEC</text>
			</g>
		</g>
	</g>
</g>
</svg>
